<?xml version="1.0" encoding="UTF-8" standalone="no"?>
<!DOCTYPE svg PUBLIC "-//W3C//DTD SVG 1.1//EN" "http://www.w3.org/Graphics/SVG/1.1/DTD/svg11.dtd">
<svg width="100%" height="100%" viewBox="0 0 540 560" version="1.1" xmlns="http://www.w3.org/2000/svg" xmlns:xlink="http://www.w3.org/1999/xlink" xml:space="preserve" style="fill-rule:evenodd;clip-rule:evenodd;stroke-linejoin:round;stroke-miterlimit:1.41421;">
    <g id="White-Background" transform="matrix(1,0,0,1,-340,-240)">
        <g transform="matrix(1,-0,-0,1,340,240)">
            <use xlink:href="#_Image1" x="0" y="0" width="540px" height="560px"/>
        </g>
    </g>
    <g transform="matrix(1,0,0,1,-429.207,-140)">
        <path d="M459.014,155.735C456.876,152.68 456.615,148.689 458.337,145.382C460.059,142.075 463.478,140 467.207,140C495.178,140 546.59,140 572.38,140C582.17,140 591.343,144.776 596.957,152.796L968.986,684.265C971.124,687.32 971.385,691.311 969.663,694.618C967.941,697.925 964.522,700 960.793,700C937.714,700 898.676,700 871.239,700C851.66,700 833.313,690.447 822.085,674.408C794.699,635.285 742.825,561.178 716.385,523.407C712.642,518.06 706.526,514.876 700,514.876C693.474,514.876 687.358,518.06 683.615,523.407C653.899,565.859 592.055,654.208 568.957,687.204C563.343,695.224 554.17,700 544.38,700C518.59,700 467.178,700 439.207,700C435.478,700 432.059,697.925 430.337,694.618C428.615,691.311 428.876,687.32 431.014,684.265C464.658,636.203 566.426,490.82 609.929,428.673C621.98,411.457 621.98,388.543 609.929,371.327C571.532,316.475 488.845,198.35 459.014,155.735Z" style="fill:url(#_Linear2);"/>
    </g>
    <g transform="matrix(1,0,0,1,-429.207,-140)">
        <path d="M794.096,365.577C793.161,366.914 791.632,367.71 790,367.71C788.368,367.71 786.839,366.914 785.904,365.577C772.704,346.72 731.583,287.975 722.007,274.296C720.802,272.574 720.802,270.283 722.007,268.561C733.17,252.615 787.757,174.633 806.028,148.531C809.771,143.184 815.887,140 822.413,140C848.631,140 917.073,140 942.397,140C944.261,140 945.971,141.037 946.832,142.691C947.693,144.345 947.562,146.34 946.493,147.867C921.169,184.044 816.198,334.002 794.096,365.577Z" style="fill:url(#_Linear3);"/>
    </g>
    <defs>
        <linearGradient id="_Linear2" x1="0" y1="0" x2="1" y2="0" gradientUnits="userSpaceOnUse" gradientTransform="matrix(116.28,541.233,-541.233,116.28,700,158.767)"><stop offset="0%" style="stop-color:rgb(163,115,182);stop-opacity:1"/><stop offset="100%" style="stop-color:rgb(106,64,123);stop-opacity:1"/></linearGradient>
        <linearGradient id="_Linear3" x1="0" y1="0" x2="1" y2="0" gradientUnits="userSpaceOnUse" gradientTransform="matrix(-160.419,280,-280,-160.419,881.522,140)"><stop offset="0%" style="stop-color:rgb(127,115,182);stop-opacity:1"/><stop offset="100%" style="stop-color:rgb(74,64,123);stop-opacity:1"/></linearGradient>
    </defs>
</svg>
